<svg xmlns="http://www.w3.org/2000/svg" viewBox="0 0 192 192" width="192" height="192">
  <defs>
    <linearGradient id="bg" x1="0" y1="0" x2="1" y2="1">
      <stop offset="0%" stop-color="#1e3a5f"/>
      <stop offset="100%" stop-color="#2563eb"/>
    </linearGradient>
  </defs>
  <rect width="192" height="192" rx="32" fill="url(#bg)"/>
  <!-- Book shape -->
  <g transform="translate(96,88)" fill="none" stroke="#fbbf24" stroke-width="5" stroke-linecap="round" stroke-linejoin="round">
    <path d="M0,-32 C0,-32 -40,-38 -48,-28 L-48,28 C-40,18 0,24 0,24" fill="rgba(251,191,36,0.1)"/>
    <path d="M0,-32 C0,-32 40,-38 48,-28 L48,28 C40,18 0,24 0,24" fill="rgba(251,191,36,0.1)"/>
    <line x1="0" y1="-32" x2="0" y2="24"/>
  </g>
  <!-- Shield badge -->
  <g transform="translate(96,148)">
    <path d="M0,-18 L16,-10 L16,6 C16,14 0,22 0,22 C0,22 -16,14 -16,6 L-16,-10 Z" fill="#fbbf24" stroke="#1e3a5f" stroke-width="2"/>
    <text x="0" y="6" text-anchor="middle" font-size="16" font-weight="800" fill="#1e3a5f" font-family="sans-serif">P</text>
  </g>
</svg>
