<svg xmlns="http://www.w3.org/2000/svg" viewBox="0 0 512 512" width="512" height="512">
  <defs>
    <linearGradient id="bg" x1="0" y1="0" x2="1" y2="1">
      <stop offset="0%" stop-color="#1e3a5f"/>
      <stop offset="100%" stop-color="#2563eb"/>
    </linearGradient>
  </defs>
  <rect width="512" height="512" rx="80" fill="url(#bg)"/>
  <!-- Book shape -->
  <g transform="translate(256,220)" fill="none" stroke="#fbbf24" stroke-width="12" stroke-linecap="round" stroke-linejoin="round">
    <path d="M0,-85 C0,-85 -107,-101 -128,-75 L-128,75 C-107,48 0,64 0,64" fill="rgba(251,191,36,0.1)"/>
    <path d="M0,-85 C0,-85 107,-101 128,-75 L128,75 C107,48 0,64 0,64" fill="rgba(251,191,36,0.1)"/>
    <line x1="0" y1="-85" x2="0" y2="64"/>
  </g>
  <!-- Shield badge -->
  <g transform="translate(256,390)">
    <path d="M0,-48 L43,-26 L43,16 C43,38 0,58 0,58 C0,58 -43,38 -43,16 L-43,-26 Z" fill="#fbbf24" stroke="#1e3a5f" stroke-width="5"/>
    <text x="0" y="14" text-anchor="middle" font-size="42" font-weight="800" fill="#1e3a5f" font-family="sans-serif">P</text>
  </g>
</svg>
